<?xml version="1.0" encoding="UTF-8" standalone="yes"?>
<svg id="svg2" xmlns="http://www.w3.org/2000/svg" viewBox="0 0 208.1 67.8">
  <defs>
    <style>.cls-1{fill:#685441;}.cls-2{fill:#a37d64;}</style>
  </defs>
  <path class="cls-1" d="M87.8,34H83.7l-2.9-5.4a2,2,0,0,0-.9-.9,2.77,2.77,0,0,0-1.3-.3H76.8V34H73.1V17h7.8a6.54,6.54,0,0,1,4.5,1.3,4.76,4.76,0,0,1,1.5,3.8,4.77,4.77,0,0,1-1.1,3.2,5,5,0,0,1-3,1.7A3.65,3.65,0,0,1,85,28.9ZM82.7,24a2.14,2.14,0,0,0,.7-1.8,2.14,2.14,0,0,0-.7-1.8,3.71,3.71,0,0,0-2.3-.6H76.8v4.7h3.6A3,3,0,0,0,82.7,24Z"/>
  <path class="cls-1" d="M99,23.1a5.36,5.36,0,0,1,1.3,3.9v7H96.9V32.2a2.36,2.36,0,0,1-1.2,1.4,4.23,4.23,0,0,1-2,.5,5.45,5.45,0,0,1-2.2-.5A3.84,3.84,0,0,1,90,32.3a3.29,3.29,0,0,1-.6-1.9,2.58,2.58,0,0,1,.7-2,3.82,3.82,0,0,1,2.1-1.1,21,21,0,0,1,4-.3h.6v-.4a2.07,2.07,0,0,0-.5-1.5,2.2,2.2,0,0,0-1.6-.4,6.8,6.8,0,0,0-1.9.3,7.22,7.22,0,0,0-2,.9l-1-2.4a8.16,8.16,0,0,1,2.5-1,9.29,9.29,0,0,1,2.7-.4C96.9,21.9,98.2,22.3,99,23.1Zm-2.9,7.8a2.79,2.79,0,0,0,.6-1.8v-.4h-.4a8.24,8.24,0,0,0-2.7.3,1.17,1.17,0,0,0-.8,1.1,1.38,1.38,0,0,0,1.5,1.5A1.89,1.89,0,0,0,96.1,30.9Z"/>
  <path class="cls-1" d="M103.1,16.5H107v3.4h-3.9Zm.2,17.5V22.2h3.6V34Z"/>
  <path class="cls-1" d="M120.5,23.1a5.63,5.63,0,0,1,1,3.7V34h-3.6V27a3,3,0,0,0-.4-1.8,1.68,1.68,0,0,0-1.4-.6,2.14,2.14,0,0,0-1.8.7,2.49,2.49,0,0,0-.7,1.9V34H110V22.2h3.5v1.7a5.72,5.72,0,0,1,1.6-1.5,5.45,5.45,0,0,1,2.2-.5A4.08,4.08,0,0,1,120.5,23.1Z"/>
  <path class="cls-1" d="M142,23.1a5.63,5.63,0,0,1,1,3.7V34h-3.6V27a2.5,2.5,0,0,0-.4-1.7,1.73,1.73,0,0,0-1.3-.5,1.86,1.86,0,0,0-1.6.7,3.17,3.17,0,0,0-.6,2V34H132V27a2.5,2.5,0,0,0-.4-1.7,1.73,1.73,0,0,0-1.3-.5,1.86,1.86,0,0,0-1.6.7,3.17,3.17,0,0,0-.6,2V34h-3.6V22.2H128v1.6a4,4,0,0,1,1.5-1.4,4.65,4.65,0,0,1,2.1-.5,3.42,3.42,0,0,1,3.5,2.2,4.1,4.1,0,0,1,1.6-1.6,4.38,4.38,0,0,1,2.3-.6A3.51,3.51,0,0,1,142,23.1Z"/>
  <path class="cls-1" d="M155.2,23.1a5.36,5.36,0,0,1,1.3,3.9v7H153V32.2a2.36,2.36,0,0,1-1.2,1.4,4.23,4.23,0,0,1-2,.5,5.45,5.45,0,0,1-2.2-.5,3.84,3.84,0,0,1-1.5-1.3,3.29,3.29,0,0,1-.6-1.9,2.58,2.58,0,0,1,.7-2,3.82,3.82,0,0,1,2.1-1.1,21,21,0,0,1,4-.3h.6v-.4a2.07,2.07,0,0,0-.5-1.5,2.2,2.2,0,0,0-1.6-.4,6.8,6.8,0,0,0-1.9.3,7.22,7.22,0,0,0-2,.9l-1-2.4a8.16,8.16,0,0,1,2.5-1,9.29,9.29,0,0,1,2.7-.4A5.06,5.06,0,0,1,155.2,23.1Zm-2.9,7.8a2.79,2.79,0,0,0,.6-1.8v-.4h-.4a8.24,8.24,0,0,0-2.7.3,1.17,1.17,0,0,0-.8,1.1,1.38,1.38,0,0,0,1.5,1.5A1.89,1.89,0,0,0,152.3,30.9Z"/>
  <path class="cls-1" d="M167.1,31.4l-.2,2.6a6.6,6.6,0,0,1-1.4.1,5.36,5.36,0,0,1-3.9-1.2,4.89,4.89,0,0,1-1.2-3.6V24.8h-2.2V22.1h2.2V18.6H164v3.5h3v2.7h-3v4.5a1.83,1.83,0,0,0,2,2.1A2,2,0,0,0,167.1,31.4Z"/>
  <path class="cls-1" d="M176.4,31.4l-.2,2.6a6.6,6.6,0,0,1-1.4.1,5.36,5.36,0,0,1-3.9-1.2,4.89,4.89,0,0,1-1.2-3.6V24.8h-2.2V22.1h2.2V18.6h3.6v3.5h3v2.7h-3v4.5a1.83,1.83,0,0,0,2,2.1A2,2,0,0,0,176.4,31.4Z"/>
  <path class="cls-1" d="M188.9,28.8h-7.7a3.4,3.4,0,0,0,.9,2.1,3.28,3.28,0,0,0,2.1.6,5.66,5.66,0,0,0,1.8-.3,5.07,5.07,0,0,0,1.6-.9l1,2.4a10.34,10.34,0,0,1-2.1,1.1,7.27,7.27,0,0,1-2.5.4,6.55,6.55,0,0,1-4.7-1.6,6.11,6.11,0,0,1-1.7-4.5,6.57,6.57,0,0,1,.7-3.2,5.56,5.56,0,0,1,2.1-2.2,6.11,6.11,0,0,1,3-.8,4.85,4.85,0,0,1,3.9,1.6,6.66,6.66,0,0,1,1.5,4.4v.9Zm-7-3.8a3.34,3.34,0,0,0-.8,1.9h4.6a3.29,3.29,0,0,0-.6-1.9,2.11,2.11,0,0,0-1.6-.6A2.27,2.27,0,0,0,181.9,25Z"/>
  <path class="cls-1" d="M199.8,24.9l-2,.2a3,3,0,0,0-2.1.9,2.88,2.88,0,0,0-.6,1.9V34h-3.6V22.2H195v2c.6-1.4,1.8-2.1,3.7-2.2l1.1-.1Z"/>
  <path class="cls-1" d="M72.9,56.5V45.2h7v1.1H74.2v3.9h5.4v1.1H74.2v5.2Z"/>
  <path class="cls-1" d="M83,56.1a3,3,0,0,1-1.3-1.4,4.66,4.66,0,0,1,0-4.2A3,3,0,0,1,83,49.1a4.14,4.14,0,0,1,1.9-.5,4.55,4.55,0,0,1,2,.5,3,3,0,0,1,1.3,1.4,4.66,4.66,0,0,1,0,4.2,3,3,0,0,1-1.3,1.4,4.23,4.23,0,0,1-2,.5A3.83,3.83,0,0,1,83,56.1Zm3.7-1.3a3.4,3.4,0,0,0,.6-2.2,3.59,3.59,0,0,0-.6-2.2,2.2,2.2,0,0,0-1.8-.8,2.34,2.34,0,0,0-1.8.8,3,3,0,0,0-.6,2.2,3.4,3.4,0,0,0,.6,2.2,2.43,2.43,0,0,0,3.6,0Z"/>
  <path class="cls-1" d="M97.4,48.7v7.8H96.1V55.2a2.66,2.66,0,0,1-1,1.1,3.31,3.31,0,0,1-1.5.4,2.86,2.86,0,0,1-2.1-.8,3.17,3.17,0,0,1-.7-2.3V48.8h1.3v4.8a2.08,2.08,0,0,0,.4,1.5,1.73,1.73,0,0,0,1.3.5,1.86,1.86,0,0,0,1.6-.7,2.61,2.61,0,0,0,.6-1.8V48.7Z"/>
  <path class="cls-1" d="M106.8,51.6v4.9h-1.3V51.7a2.36,2.36,0,0,0-.4-1.6,1.81,1.81,0,0,0-1.4-.5,2.06,2.06,0,0,0-1.7.7,2.44,2.44,0,0,0-.6,1.8v4.5h-1.3V48.8h1.3V50a2.91,2.91,0,0,1,1.1-1.1,4.19,4.19,0,0,1,1.6-.4C105.8,48.5,106.8,49.5,106.8,51.6Z"/>
  <path class="cls-1" d="M116.3,45.2V56.5H115V55a2.17,2.17,0,0,1-1,1.1,2.93,2.93,0,0,1-1.6.4,3.45,3.45,0,0,1-1.8-.5,3.33,3.33,0,0,1-1.2-1.4,5.71,5.71,0,0,1,0-4.2,3.33,3.33,0,0,1,1.2-1.4,3.45,3.45,0,0,1,1.8-.5,2.93,2.93,0,0,1,1.6.4,2.13,2.13,0,0,1,1,1.1V45.2Zm-1.9,9.5a4.33,4.33,0,0,0,0-4.4,2.2,2.2,0,0,0-1.8-.8,2.34,2.34,0,0,0-1.8.8,3.4,3.4,0,0,0-.6,2.2,3.59,3.59,0,0,0,.6,2.2,2.2,2.2,0,0,0,1.8.8A2,2,0,0,0,114.4,54.7Z"/>
  <path class="cls-1" d="M124.3,49.2a3.17,3.17,0,0,1,.7,2.3v4.9h-1.3V55.1a2.44,2.44,0,0,1-.9,1.1,3.26,3.26,0,0,1-1.4.4,3.19,3.19,0,0,1-1.4-.3,2.72,2.72,0,0,1-1-.8,2.84,2.84,0,0,1-.4-1.2,2.12,2.12,0,0,1,.4-1.4,2.63,2.63,0,0,1,1.5-.7,19.1,19.1,0,0,1,2.8-.2h.4v-.5a1.81,1.81,0,0,0-.4-1.4,1.7,1.7,0,0,0-1.3-.4,5.6,5.6,0,0,0-2.7.8l-.4-.9a5.23,5.23,0,0,1,1.5-.7,5.08,5.08,0,0,1,1.7-.3A2.45,2.45,0,0,1,124.3,49.2Zm-1.1,5.7a2.35,2.35,0,0,0,.6-1.7v-.5h-.3a11.57,11.57,0,0,0-2.1.1,1.88,1.88,0,0,0-1,.4,1.14,1.14,0,0,0-.3.8,1.23,1.23,0,0,0,.5,1,1.5,1.5,0,0,0,1.1.4A1.44,1.44,0,0,0,123.2,54.9Z"/>
  <path class="cls-1" d="M131.8,55.5l-.1,1c-.2,0-.5.1-.8.1a2.82,2.82,0,0,1-2.1-.7,2.72,2.72,0,0,1-.7-2V49.8h-1.5v-1h1.5V46.4h1.3v2.4h2.2v1h-2.2v4c0,1.2.6,1.8,1.7,1.8A2,2,0,0,1,131.8,55.5Z"/>
  <path class="cls-1" d="M133.3,45.3h1.6v1.5h-1.6Zm.1,11.2V48.7h1.3v7.8Z"/>
  <path class="cls-1" d="M138.7,56.1a3,3,0,0,1-1.3-1.4,4.66,4.66,0,0,1,0-4.2,3,3,0,0,1,1.3-1.4,4.14,4.14,0,0,1,1.9-.5,4.55,4.55,0,0,1,2,.5,3,3,0,0,1,1.3,1.4,4.66,4.66,0,0,1,0,4.2,3,3,0,0,1-1.3,1.4,4.23,4.23,0,0,1-2,.5A3.83,3.83,0,0,1,138.7,56.1Zm3.7-1.3a3.4,3.4,0,0,0,.6-2.2,3.59,3.59,0,0,0-.6-2.2,2.2,2.2,0,0,0-1.8-.8,2.34,2.34,0,0,0-1.8.8,3,3,0,0,0-.6,2.2,3.4,3.4,0,0,0,.6,2.2,2.42,2.42,0,0,0,3.6,0Z"/>
  <path class="cls-1" d="M153.2,51.6v4.9h-1.3V51.7a2.36,2.36,0,0,0-.4-1.6,1.81,1.81,0,0,0-1.4-.5,2.06,2.06,0,0,0-1.7.7,2.44,2.44,0,0,0-.6,1.8v4.5h-1.3V48.8h1.3V50a2.91,2.91,0,0,1,1.1-1.1,4.19,4.19,0,0,1,1.6-.4C152.3,48.5,153.2,49.5,153.2,51.6Z"/>
  <g id="polygon1820">
    <polygon class="cls-2" points="19.4 53 14.3 53 14.3 35.8 30 26.8 45.8 35.8 45.8 53 40.7 53 40.7 38.7 30 32.6 19.4 38.7 19.4 53"/>
  </g>
  <g id="path1822">
    <path class="cls-1" d="M30.1,4.7,4.8,19.3V48.5L30.1,63.1,55.4,48.5V19.3Zm0,5.5L50.6,22V45.7L30.1,57.6,9.5,45.7V22Z"/>
  </g>
</svg>